  0
SECTION
  2
HEADER
  9
$MEASUREMENT
  70
  1
  9
$INSUNITS
  70
  4
  0
ENDSEC
  0
SECTION
  2
TABLES
  0
TABLE
  2
LTYPE
 70
     1
  0
LTYPE
  2
CONTINUOUS
 70
    64
  3
Ausgezogene Linie
 72
    65
 73
     0
 40
0.0
  0
ENDTAB
  0
TABLE
  2
LAYER
 70
     3
  0
LAYER
  2
Contour
 70
    64
 62
     7
  6
CONTINUOUS
  0
LAYER
  2
Engraving
 70
    64
 62
     7
  6
CONTINUOUS
  0
LAYER
  2
Reference_points
 70
    64
 62
     1
  6
CONTINUOUS
  0
ENDTAB
  0
TABLE
  2
STYLE
 70
     1
  0
STYLE
  2
TXT
 70
    64
 40
0.0
 41
1.0
 50
0.0
 71
     0
 42
3.500000
  3
TXT
  0
ENDTAB
  0
ENDSEC
  0
SECTION
  2
BLOCKS
  0
ENDSEC
  0
SECTION
  2
ENTITIES
  0
ARC
  8
Contour
 62
   7
 39
0.100
  6
CONTINUOUS
 10
79.94000
 20
127.40000
 30
 0
 40
1.00000
 50
0.00000
 51
90.00000
  0
LINE
  8
Contour
 62
   7
 39
0.100
  6
CONTINUOUS
 10
80.94000
 20
127.40000
 30
 0
 11
80.94000
 21
1.00000
  0
ARC
  8
Contour
 62
   7
 39
0.100
  6
CONTINUOUS
 10
79.94000
 20
1.00000
 30
 0
 40
1.00000
 50
-90.00000
 51
0.00000
  0
LINE
  8
Contour
 62
   7
 39
0.100
  6
CONTINUOUS
 10
79.94000
 20
0.00000
 30
 0
 11
1.00000
 21
0.00000
  0
ARC
  8
Contour
 62
   7
 39
0.100
  6
CONTINUOUS
 10
1.00000
 20
1.00000
 30
 0
 40
1.00000
 50
180.00000
 51
270.00000
  0
LINE
  8
Contour
 62
   7
 39
0.100
  6
CONTINUOUS
 10
0.00000
 20
1.00000
 30
 0
 11
0.00000
 21
127.40000
  0
ARC
  8
Contour
 62
   7
 39
0.100
  6
CONTINUOUS
 10
1.00000
 20
127.40000
 30
 0
 40
1.00000
 50
90.00000
 51
180.00000
  0
LINE
  8
Contour
 62
   7
 39
0.100
  6
CONTINUOUS
 10
1.00000
 20
128.40000
 30
 0
 11
79.94000
 21
128.40000
  0
CIRCLE
  8
Contour
 62
   7
 39
0.100
  6
CONTINUOUS
 10
11.70000
 20
111.24800
 30
 0
 40
3.10000
  0
CIRCLE
  8
Contour
 62
   7
 39
0.100
  6
CONTINUOUS
 10
30.70000
 20
111.24800
 30
 0
 40
3.10000
  0
CIRCLE
  8
Contour
 62
   7
 39
0.100
  6
CONTINUOUS
 10
63.90000
 20
111.24800
 30
 0
 40
2.46000
  0
CIRCLE
  8
Contour
 62
   7
 39
0.100
  6
CONTINUOUS
 10
63.90000
 20
19.99800
 30
 0
 40
3.60000
  0
ARC
  8
Contour
 62
   7
 39
0.100
  6
CONTINUOUS
 10
8.25000
 20
89.69800
 30
 0
 40
1.00000
 50
180.00000
 51
270.00000
  0
LINE
  8
Contour
 62
   7
 39
0.100
  6
CONTINUOUS
 10
8.25000
 20
88.69800
 30
 0
 11
32.15000
 21
88.69800
  0
ARC
  8
Contour
 62
   7
 39
0.100
  6
CONTINUOUS
 10
32.15000
 20
89.69800
 30
 0
 40
1.00000
 50
270.00000
 51
360.00000
  0
LINE
  8
Contour
 62
   7
 39
0.100
  6
CONTINUOUS
 10
33.15000
 20
89.69800
 30
 0
 11
33.15000
 21
98.29800
  0
ARC
  8
Contour
 62
   7
 39
0.100
  6
CONTINUOUS
 10
32.15000
 20
98.29800
 30
 0
 40
1.00000
 50
0.00000
 51
90.00000
  0
LINE
  8
Contour
 62
   7
 39
0.100
  6
CONTINUOUS
 10
32.15000
 20
99.29800
 30
 0
 11
8.25000
 21
99.29800
  0
ARC
  8
Contour
 62
   7
 39
0.100
  6
CONTINUOUS
 10
8.25000
 20
98.29800
 30
 0
 40
1.00000
 50
90.00000
 51
180.00000
  0
LINE
  8
Contour
 62
   7
 39
0.100
  6
CONTINUOUS
 10
7.25000
 20
98.29800
 30
 0
 11
7.25000
 21
89.69800
  0
ARC
  8
Contour
 62
   7
 39
0.100
  6
CONTINUOUS
 10
6.00000
 20
125.04800
 30
 0
 40
1.00000
 50
180.00000
 51
270.00000
  0
LINE
  8
Contour
 62
   7
 39
0.100
  6
CONTINUOUS
 10
6.00000
 20
124.04800
 30
 0
 11
9.00000
 21
124.04800
  0
ARC
  8
Contour
 62
   7
 39
0.100
  6
CONTINUOUS
 10
9.00000
 20
125.04800
 30
 0
 40
1.00000
 50
270.00000
 51
360.00000
  0
LINE
  8
Contour
 62
   7
 39
0.100
  6
CONTINUOUS
 10
10.00000
 20
125.04800
 30
 0
 11
10.00000
 21
126.04800
  0
ARC
  8
Contour
 62
   7
 39
0.100
  6
CONTINUOUS
 10
9.00000
 20
126.04800
 30
 0
 40
1.00000
 50
0.00000
 51
90.00000
  0
LINE
  8
Contour
 62
   7
 39
0.100
  6
CONTINUOUS
 10
9.00000
 20
127.04800
 30
 0
 11
6.00000
 21
127.04800
  0
ARC
  8
Contour
 62
   7
 39
0.100
  6
CONTINUOUS
 10
6.00000
 20
126.04800
 30
 0
 40
1.00000
 50
90.00000
 51
180.00000
  0
LINE
  8
Contour
 62
   7
 39
0.100
  6
CONTINUOUS
 10
5.00000
 20
126.04800
 30
 0
 11
5.00000
 21
125.04800
  0
ARC
  8
Contour
 62
   7
 39
0.100
  6
CONTINUOUS
 10
6.00000
 20
1.94800
 30
 0
 40
1.00000
 50
180.00000
 51
270.00000
  0
LINE
  8
Contour
 62
   7
 39
0.100
  6
CONTINUOUS
 10
6.00000
 20
0.94800
 30
 0
 11
9.00000
 21
0.94800
  0
ARC
  8
Contour
 62
   7
 39
0.100
  6
CONTINUOUS
 10
9.00000
 20
1.94800
 30
 0
 40
1.00000
 50
270.00000
 51
360.00000
  0
LINE
  8
Contour
 62
   7
 39
0.100
  6
CONTINUOUS
 10
10.00000
 20
1.94800
 30
 0
 11
10.00000
 21
2.94800
  0
ARC
  8
Contour
 62
   7
 39
0.100
  6
CONTINUOUS
 10
9.00000
 20
2.94800
 30
 0
 40
1.00000
 50
0.00000
 51
90.00000
  0
LINE
  8
Contour
 62
   7
 39
0.100
  6
CONTINUOUS
 10
9.00000
 20
3.94800
 30
 0
 11
6.00000
 21
3.94800
  0
ARC
  8
Contour
 62
   7
 39
0.100
  6
CONTINUOUS
 10
6.00000
 20
2.94800
 30
 0
 40
1.00000
 50
90.00000
 51
180.00000
  0
LINE
  8
Contour
 62
   7
 39
0.100
  6
CONTINUOUS
 10
5.00000
 20
2.94800
 30
 0
 11
5.00000
 21
1.94800
  0
ARC
  8
Contour
 62
   7
 39
0.100
  6
CONTINUOUS
 10
71.90000
 20
1.94800
 30
 0
 40
1.00000
 50
180.00000
 51
270.00000
  0
LINE
  8
Contour
 62
   7
 39
0.100
  6
CONTINUOUS
 10
71.90000
 20
0.94800
 30
 0
 11
74.90000
 21
0.94800
  0
ARC
  8
Contour
 62
   7
 39
0.100
  6
CONTINUOUS
 10
74.90000
 20
1.94800
 30
 0
 40
1.00000
 50
270.00000
 51
360.00000
  0
LINE
  8
Contour
 62
   7
 39
0.100
  6
CONTINUOUS
 10
75.90000
 20
1.94800
 30
 0
 11
75.90000
 21
2.94800
  0
ARC
  8
Contour
 62
   7
 39
0.100
  6
CONTINUOUS
 10
74.90000
 20
2.94800
 30
 0
 40
1.00000
 50
0.00000
 51
90.00000
  0
LINE
  8
Contour
 62
   7
 39
0.100
  6
CONTINUOUS
 10
74.90000
 20
3.94800
 30
 0
 11
71.90000
 21
3.94800
  0
ARC
  8
Contour
 62
   7
 39
0.100
  6
CONTINUOUS
 10
71.90000
 20
2.94800
 30
 0
 40
1.00000
 50
90.00000
 51
180.00000
  0
LINE
  8
Contour
 62
   7
 39
0.100
  6
CONTINUOUS
 10
70.90000
 20
2.94800
 30
 0
 11
70.90000
 21
1.94800
  0
ARC
  8
Contour
 62
   7
 39
0.100
  6
CONTINUOUS
 10
71.90000
 20
125.04800
 30
 0
 40
1.00000
 50
180.00000
 51
270.00000
  0
LINE
  8
Contour
 62
   7
 39
0.100
  6
CONTINUOUS
 10
71.90000
 20
124.04800
 30
 0
 11
74.90000
 21
124.04800
  0
ARC
  8
Contour
 62
   7
 39
0.100
  6
CONTINUOUS
 10
74.90000
 20
125.04800
 30
 0
 40
1.00000
 50
270.00000
 51
360.00000
  0
LINE
  8
Contour
 62
   7
 39
0.100
  6
CONTINUOUS
 10
75.90000
 20
125.04800
 30
 0
 11
75.90000
 21
126.04800
  0
ARC
  8
Contour
 62
   7
 39
0.100
  6
CONTINUOUS
 10
74.90000
 20
126.04800
 30
 0
 40
1.00000
 50
0.00000
 51
90.00000
  0
LINE
  8
Contour
 62
   7
 39
0.100
  6
CONTINUOUS
 10
74.90000
 20
127.04800
 30
 0
 11
71.90000
 21
127.04800
  0
ARC
  8
Contour
 62
   7
 39
0.100
  6
CONTINUOUS
 10
71.90000
 20
126.04800
 30
 0
 40
1.00000
 50
90.00000
 51
180.00000
  0
LINE
  8
Contour
 62
   7
 39
0.100
  6
CONTINUOUS
 10
70.90000
 20
126.04800
 30
 0
 11
70.90000
 21
125.04800
  0
CIRCLE
  8
Contour
 62
   7
 39
0.100
  6
CONTINUOUS
 10
63.90000
 20
43.99800
 30
 0
 40
3.60000
  0
CIRCLE
  8
Contour
 62
   7
 39
0.100
  6
CONTINUOUS
 10
63.90000
 20
67.99800
 30
 0
 40
3.60000
  0
CIRCLE
  8
Contour
 62
   7
 39
0.100
  6
CONTINUOUS
 10
63.90000
 20
91.99800
 30
 0
 40
3.60000
  0
ENDSEC
  0
EOF
